<svg xmlns="http://www.w3.org/2000/svg" width="256" height="256"><path fill-rule="evenodd" clip-rule="evenodd" fill="#3B4652" d="M205.016 188.633c-5.518-3.186-7.408-10.242-4.223-15.76 3.186-5.518 10.241-7.408 15.76-4.223 5.518 3.186 7.408 10.242 4.223 15.76-3.186 5.518-10.243 7.41-15.76 4.223m-8.653 14.988c-13.795-7.965-18.521-25.605-10.558-39.4 7.965-13.795 25.605-18.521 39.399-10.557 13.795 7.965 18.521 25.604 10.557 39.4-7.963 13.795-25.603 18.522-39.398 10.557zM88.452 121.335c-5.518-3.186-7.408-10.242-4.223-15.76 3.186-5.518 10.241-7.408 15.76-4.223 5.517 3.186 7.409 10.242 4.223 15.76-3.186 5.518-10.241 7.409-15.76 4.223zM79.8 136.322c-13.795-7.964-18.521-25.604-10.557-39.399 7.964-13.795 25.604-18.521 39.399-10.557 13.794 7.964 18.52 25.604 10.557 39.398-7.965 13.797-25.604 18.523-39.399 10.558zm30.465 97.373l8.483-13.266-10.361 4.535-9.398-2.104-12.845 8.156-6.099-3.521 16.345-28.309 44.492 25.684c-7.493 5.89-15.08 11.13-22.718 17.13h-12.989l-8.857-5.113 4.097-5.357 9.85 2.165zM190.807 256a4 4 0 0 1 0-8h2.729l-38.365-15.432C148.175 238.016 141.297 243 134.236 248h5.57a4 4 0 0 1 0 8h-60a4 4 0 0 1 0-8h.492c-24.801-12-48.896-25.066-71.266-41.133-8.123-5.836-11.045-16.326-7.106-25.506 4.379-10.211 8.112-18.008 13.23-27.176 2.44-4.369 4.979-8.738 7.502-13.109l4.996 2.885a3.853 3.853 0 0 0 5.253-1.408l1.923-3.33a3.855 3.855 0 0 0-1.407-5.254l-4.996-2.883 14.421-24.979-.832-.48c-8.813-5.088-1.122-18.409 7.691-13.321l1.043.603c2.398-2.438 6.24-3.059 9.334-1.272l.834.481c-10.62 18.393-4.318 41.913 14.075 52.532 16.286 9.402 36.589 5.537 48.399-8.24l6.627 14.244-6.316 9.941 7.604 21.41 1.5-18 8.33-5.285-2.039-21.465 38.383 22.16c-10.619 18.393-4.317 41.912 14.076 52.531s41.912 4.318 52.531-14.074l.832.48c3.095 1.785 4.479 5.424 3.566 8.719l1.044.604c8.812 5.088 1.121 18.41-7.691 13.32l-.832-.48-10.137 17.711c-7.701-4.447-8.55-3.926-11.2-.137l11.271 10.906a3.997 3.997 0 0 1-2.633 7.006h-37.501zM37.359 165.303L21.914 192.18c-.448.779.084 2.357.732 2.732l47.631 27.5 16.983-28.166-35.102-20.359-2.267 7.008 9.301 6.535-7.698 17.711-1.402-15.152-8.652-6.066 1.536-15.361-5.617-3.259z"/><path fill-rule="evenodd" clip-rule="evenodd" fill="#2B79C1" d="M166.807 117.003a9 9 0 0 1 9 9 9 9 0 1 1-9-9m-10.5-100.5a9 9 0 1 1 0 18 9 9 0 0 1 0-18zM208.236.004c8.721 0 16.136 5.589 18.86 13.381 4.176.277 7.686 2.988 9.127 6.726a17.863 17.863 0 0 1 1.959-.108c9.733 0 17.625 7.892 17.625 17.625 0 9.571-7.629 17.36-17.138 17.619-.175 6.771-5.305 12.309-11.899 13.122a19.93 19.93 0 0 1 1.401 7.364c0 11.033-8.943 19.977-19.977 19.977-3.096 0-6.029-.705-8.645-1.963.026.414.041.831.041 1.251 0 10.653-8.637 19.291-19.291 19.291s-19.291-8.638-19.291-19.291c0-2.997.684-5.835 1.904-8.366a10.535 10.535 0 0 1-5.939-9.483c0-1.451.293-2.834.824-4.092-4.495-3.257-7.419-8.548-7.419-14.522 0-9.898 8.024-17.923 17.923-17.923.251 0 .501.006.75.017-.029-.379-.044-.76-.044-1.146 0-8.183 6.634-14.816 14.816-14.816 1.847 0 3.613.339 5.243.956a20.014 20.014 0 0 1-.809-5.643C188.26 8.948 197.203.004 208.236.004z"/></svg>