<svg height="256" width="256" xmlns="http://www.w3.org/2000/svg"><g clip-rule="evenodd" fill-rule="evenodd"><path d="M246.02 90.129c-10.54-10.725-41.282-10.002-53.154-1.812l.113.623a3.997 3.997 0 1 1-7.876 1.375 215.38 215.38 0 0 0-.268-1.477C173.417 79.867 144 80.104 132 88.494v36.188c-3 .631-5 1.494-8 2.547V88.583c-11-8.441-41.253-8.746-52.817.143-.098.527-.196 1.059-.291 1.59a3.998 3.998 0 0 1-7.876-1.375l.1-.553c-11.776-8.252-42.564-9.031-53.144 1.75-.099.273-.199.545-.296.818a3.992 3.992 0 1 1-7.53-2.656C20.605 36.49 69 11.256 124 9.625V4.004c0-2.211 1.791-4 4-4s4 1.789 4 4v5.621c55 1.631 103.392 26.865 121.852 78.674a3.993 3.993 0 1 1-7.533 2.656 91.187 91.187 0 0 0-.299-.826" fill="#2b79c1"/><path d="M241.078 222h.009zm0-.25h.009l-.012-.028c-.015-.033-.007-.002-.012.014z" fill="#3b4652"/><path d="M62.777 223.224a10.968 10.968 0 0 0-7.779-3.222 10.962 10.962 0 0 0-7.779 3.222 10.963 10.963 0 0 0-3.221 7.778c0 3.039 1.231 5.79 3.221 7.779a10.97 10.97 0 0 0 7.779 3.221c3.039 0 5.79-1.232 7.779-3.221a10.968 10.968 0 0 0 3.221-7.779c0-3.038-1.231-5.789-3.221-7.778m-7.779-17.222c13.807 0 25 11.193 25 25 0 13.808-11.193 25-25 25s-25-11.192-25-25c0-13.807 11.193-25 25-25zm155.953 17.222a10.967 10.967 0 0 0-7.779-3.222 10.962 10.962 0 0 0-7.779 3.222 10.968 10.968 0 0 0-3.221 7.778c0 3.039 1.231 5.79 3.221 7.779a10.97 10.97 0 0 0 7.779 3.221 10.97 10.97 0 0 0 7.779-3.221 10.968 10.968 0 0 0 3.221-7.779c0-3.038-1.232-5.789-3.221-7.778m-7.779-17.222c13.807 0 25 11.193 25 25 0 13.808-11.193 25-25 25s-25-11.192-25-25c0-13.807 11.193-25 25-25z" fill="#2b79c1"/><path d="M20 239h2.978c-.639-3-.98-5.24-.98-7.998 0-18.223 14.777-33.001 33-33.001s33 14.778 33 33c0 2.755-.34 5.432-.977 7.99 28.237-.008 56-.017 84.123-.016a33.056 33.056 0 0 1-.973-7.974c0-18.222 14.777-33 33-33s33 14.778 33 33c0 2.759-.341 5.437-.979 7.998l3.805.003c7.293.005 17.002.5 17.002-10.361v-7.146c0-3.603-1.416-6.703-4.137-9.064l-1.864-1.617c0-25.429-1.799-44.439-14.864-67.177-2.532-4.408-6.066-7.466-11.137-7.823-28.39-2.001-55.63-2.353-84.344-.287-18.055 1.299-50.494 24.991-62.657 37.288-12.62 2.138-66.355 9.212-69.675 23.3-1.307 5.548-1.062 11.994-2.325 17.699l-.228.101C1.805 215.223 0 217.994 0 221.234v5.14C0 237.7 11.227 239 19.998 239m81.542-71.271a1.666 1.666 0 0 1-.224.218c-3.935 3.186-1.007 7.291 2.976 7.047 19.787-1.215 41.63-1.665 62.963-1.705l-1.722-27.03c-8.171.206-16.491.607-25.035 1.222-5.742.413-14.334 4.409-23.189 9.679-5.433 3.232-10.846 6.907-15.769 10.569zm79.984-21.633l1.734 27.235c12.632.088 24.842.292 36.065.535 7.201.156 8.347-4.002 6.966-10.052-1.195-4.665-2.703-9.32-4.64-13.936-.602-1.436-1.88-2.345-3.433-2.444-12.473-.801-24.522-1.27-36.316-1.337z" fill="#3b4652"/></g></svg>