<svg xmlns="http://www.w3.org/2000/svg" width="256" height="256"><path fill-rule="evenodd" clip-rule="evenodd" fill="#2B79C2" d="M144.481 95.136a21.629 21.629 0 0 0-.723-5.04c-3.069-11.52-14.939-18.396-26.458-15.327-11.52 3.069-18.396 14.938-15.327 26.459a21.58 21.58 0 0 0 1.876 4.725c-15.534 4.134-30.644 8.154-46.109 12.274a21.578 21.578 0 0 0-.723-5.022c-3.069-11.52-14.939-18.396-26.459-15.327-11.52 3.069-18.396 14.939-15.327 26.459a21.609 21.609 0 0 0 1.879 4.73C11.29 130.621 0 131.186 0 122.594V72.303c0-3.212 2.104-6.59 5.529-7.809 16.945-6.031 35.98-10.957 53.853-14.367 11.237-2.145 34.903 7.047 44.332 12.578 8.055-.747 41.401-4.388 45.488 3.793 2.97 5.944 4.311 9.741 6.502 17.388 2.114 7.38-5.733 9.788-11.223 11.25zm-23.193-5.369c-1.652.44-2.957 1.486-3.73 2.819-.773 1.334-1.031 2.992-.588 4.653.44 1.652 1.485 2.957 2.819 3.729 1.335.773 2.992 1.031 4.653.588 1.652-.44 2.957-1.486 3.73-2.819.773-1.335 1.03-2.992.588-4.653-.44-1.652-1.486-2.957-2.819-3.729-1.335-.773-2.992-1.03-4.653-.588zm-2.49-9.373c-8.432 2.247-13.447 10.903-11.201 19.335 2.246 8.432 10.903 13.447 19.335 11.2 8.432-2.246 13.447-10.903 11.2-19.335-2.245-8.432-10.902-13.446-19.334-11.2zm-84.252 32.481c-1.652.44-2.957 1.486-3.729 2.819-.773 1.335-1.03 2.993-.588 4.654.44 1.652 1.485 2.957 2.819 3.73 1.335.773 2.992 1.03 4.654.588 1.652-.44 2.957-1.486 3.729-2.819.773-1.335 1.03-2.992.588-4.654-.44-1.652-1.486-2.957-2.819-3.73-1.335-.774-2.993-1.031-4.654-.588zm-2.49-9.373c-8.432 2.246-13.446 10.903-11.201 19.335 2.246 8.432 10.903 13.447 19.335 11.201 8.432-2.246 13.447-10.903 11.201-19.335-2.246-8.432-10.903-13.447-19.335-11.201zM16.382 79.966l-.328-7.897c-.057-1.386.712-2.622 2.026-3.068 6.618-2.249 10.306-3.476 17.265-5.372.452-.123.904-.246 1.357-.367l3.337 16.737c-8.106 2.211-10.618 2.902-17.767 4.973-4.373 1.267-5.749-1.086-5.89-5.006zm27.832-18.628l3.318 16.643c13.39-3.556 27.227-6.955 39.867-9.504 2.191-.442 3.32-2.835 1.514-4.283-3.868-1.567-8.165-3.085-12.43-4.295-6.282-1.782-12.168-2.833-15.676-2.164a333.712 333.712 0 0 0-16.593 3.603z"/><path fill-rule="evenodd" clip-rule="evenodd" fill="#3B4652" d="M186.992 70.982l7 45.868c.272 1.779 1.361 3.287 3.161 3.501l25.638 4.258-7.081-53.626-28.718-.001zm48.056 55.092l15.68 1.874a5.855 5.855 0 0 1 5.256 5.822l.004 10.235h-7.978a4 4 0 0 0 0 8h7.982l.002 6h-7.984a4 4 0 0 0 0 8h7.987l.003 9.134a5.867 5.867 0 0 1-5.867 5.867h-76.131a6 6 0 0 1-6-6l.024-110a5.978 5.978 0 0 1 5.977-5.977c26.391 0 41.781.005 68.171.005a5.977 5.977 0 0 1 0 11.954l-14.4-.001 7.274 55.087zm-24.524 85.491c-7.419-7.419-19.453-7.418-26.871 0-7.378 7.378-7.378 19.493 0 26.871 7.418 7.418 19.452 7.419 26.871 0 7.378-7.378 7.378-19.493 0-26.871zm-138.173 0c-7.419-7.419-19.453-7.418-26.871 0-7.378 7.378-7.378 19.493 0 26.871 7.418 7.418 19.452 7.419 26.871 0 7.378-7.378 7.378-19.493 0-26.871zm-13.436 1.436c6.627 0 12 5.373 12 12s-5.373 12-12 12c-6.628 0-12-5.372-12-12s5.373-12 12-12zm0-19c17.121 0 31 13.879 31 31 0 17.121-13.879 30.999-31 30.999-17.121 0-31-13.879-31-30.999.001-17.121 13.879-31 31-31zm138.173 19c6.627 0 12 5.373 12 12s-5.372 12-12 12c-6.627 0-12-5.372-12-12s5.373-12 12-12zm0-19c17.121 0 31 13.879 31 31 0 17.121-13.879 30.999-31 30.999-17.121 0-31-13.879-31-30.999.001-17.121 13.88-31 31-31zM5.999 191.004h29.994c-11.323 7.65-18.078 20.337-18.078 34.007H5.999c-3.302 0-6-2.695-6-6v-22.007c.001-3.305 2.696-6 6-6zm75.836 0h92.331c-11.323 7.65-18.078 20.337-18.078 34.007H99.914c0-13.67-6.756-26.357-18.079-34.007zm138.173 0h29.993c3.305 0 6 2.695 6 6v22.007c0 3.305-2.7 6-6 6h-11.914c0-13.67-6.756-26.357-18.079-34.007zM4.451 155.815l144.018-38.472a5.981 5.981 0 0 1 7.548 5.797v51.865c0 3.304-2.695 6-6 6H5.998c-3.304 0-6-2.696-6-6v-13.392c.002-2.757 1.791-5.086 4.453-5.798zm61.418-3.986l-2.268 17.175H81.54l2.924-22.142-18.595 4.967zm-14.332 17.175l1.827-13.835L12 166.22v2.784h39.537zm45.43-25.482l-3.365 25.483h17.939l4.021-30.45-18.595 4.967zm31.1-8.308l-4.462 33.79h20.413v-38.051l-15.951 4.261z"/></svg>