<svg xmlns="http://www.w3.org/2000/svg" width="256" height="256"><path fill-rule="evenodd" clip-rule="evenodd" fill="#2B79C2" d="M14.285 177.43l6.973-50.914c1.645-12.007 3.329-18.019 10.675-24.252l21.189-17.976c3.655-3.101 3.58-7.137 1.46-9.726-5.892-7.193-6.388-8.332-8.699-20.181-1.242-6.369-2.566-14.12-2.068-18.896C45.365 20.632 53.794 8 74.788 8s29.423 12.632 30.974 27.485c.498 4.777-.826 12.527-2.068 18.896-2.311 11.85-2.807 12.988-8.699 20.181-2.121 2.589-2.195 6.625 1.459 9.726l11.51 9.765-12.127 27.351-.481-.252c-2.873-1.511-5.77-3.035-9.292-1.784-3.909 1.388-6.004 3.968-8.158 6.619-1.143 1.408-2.31 2.844-3.694 3.789-7.492 5.112-15.445 9.528-23.397 13.944l-1.071.595-6.599 12.89c3.739-2.182 7.643-4.35 11.545-6.516 8.156-4.528 16.312-9.057 24.022-14.319 2.323-1.585 3.868-3.488 5.382-5.352 1.433-1.764 2.827-3.48 4.626-4.119.248-.088 1.588.616 2.917 1.315 1.661.874 3.313 1.743 5.232 2.062 2.412.402 4.454-.274 6.464-.939 1.063-.351 2.1-.695 2.104-.689 1.42 2.37 2.277 5.464 2.295 8.694-6.345 3.649-12.645 7.827-18.43 12.071-1.469.82-2.813 1.843-4.266 3.063-.431.362-.948.816-1.538 1.349-4.252 3.351-8.077 6.643-11.243 9.643-10.906 1.815-21.629 3.468-32.488 5.973-6.755 1.559-16.827 3.945-25.482 7.989zM114.311 73.75c4.909-.054 9.793 1.832 12.164 6.344.813 1.547 1.266 3.326 1.288 5.306.037 3.385-1.237 7.352-4.25 11.677l-14.542 20.872 13.504-10.546c3.422 4.791 4.644 10.36 5.843 19.115l.17 1.239c-4.183 1.347-8.614 3.229-13.119 5.478-.515-3.188-1.593-6.183-3.088-8.678-1.577-2.632-3.32-3.701-5.159-3.952a7.56 7.56 0 0 0-1.817-.011h-.002a10.85 10.85 0 0 0-.682.096l-.098.017-.193.036-.004.001-.097.02-.098.021a14.13 14.13 0 0 0-.296.066l-.099.023-.099.024-.099.024-.018.005-.081.021-.099.026-.01.002-.09.024-.199.054-.092.025-.007.002-.1.029-.1.029-.1.029-.076.022-.024.008-.1.031-.068.02-.032.01-.1.031-.059.018-.041.013-.1.032-.051.016-.05.015-.1.032-.043.013-.058.019-.101.033-.034.011-.067.022-.101.033-.025.008-.075.025-.101.033-.017.006-.083.028-.101.033-.009.002-.093.031-.101.034c-1.096.363-2.21.731-2.652.657l-.017-.002-.002-.001-.015-.003h-.004l-.013-.003-.006-.002-.011-.002-.009-.002-.009-.002-.011-.002-.007-.001-.014-.003-.005-.001-.016-.004h-.002l-.018-.005-.019-.005H98l-.017-.004-.004-.001-.015-.004-.007-.002-.012-.003-.009-.002-.01-.003-.012-.003-.008-.002-.015-.004-.005-.001-.017-.005h-.003l-.02-.006-.021-.006h-.002l-.019-.006-.005-.001-.016-.005-.007-.002-.014-.004-.01-.003-.011-.004-.013-.004-.008-.003-.016-.006-.006-.002-.018-.006-.003-.001-.021-.008h-.001l-.022-.007-.002-.001-.02-.007-.005-.002-.017-.007-.008-.003-.015-.005-.01-.004-.012-.005-.013-.005-.009-.003-.016-.006-.007-.003-.019-.007-.004-.002-.022-.009h-.001l-.023-.009h-.002l-.021-.009-.005-.001-.018-.008-.008-.003-.016-.007-.011-.004-.013-.005-.014-.006-.01-.004-.017-.007-.007-.003-.02-.008-.004-.002-.023-.01h-.001l-.024-.01-.002-.001-.022-.009-.005-.002-.019-.008-.008-.004-.027-.012-.014-.006-.014-.006-.011-.005-.017-.008-.008-.003-.02-.009-.005-.002-.023-.011-.002-.001-.025-.011-.002-.001-.023-.011-.005-.002-.02-.009-.008-.004-.017-.008-.011-.005-.014-.007-.014-.007-.011-.005-.017-.008-.008-.004-.021-.01-.005-.002-.024-.012-.002-.001-.026-.012-.208-.101 20.387-29.261c2.01-2.885 2.863-5.249 2.843-7.052-.033-2.979-2.929-3.771-5.421-3.744l-.056-7.979zM74.874 57.317c-7.111 0-18.857-1.114-21.286-8.245-1.462-4.294-.444-10.343 2.657-11.223 4.417-1.254 7.916 2.107 18.628 2.107s14.211-3.361 18.628-2.107c3.101.88 4.119 6.929 2.657 11.223-2.427 7.131-14.173 8.245-21.284 8.245z"/><path fill-rule="evenodd" clip-rule="evenodd" fill="#3B4652" d="M217.852 147.408c-12.178-.776-24.375-1.26-36.578-1.316l1.734 27.235c12.722.086 25.021.291 36.32.536 7.199.156 8.346-4 6.966-10.048-1.134-4.427-2.55-8.845-4.346-13.23-1.025-2.502-2.233-3.055-4.096-3.177zm-46.847 25.876l-1.726-27.11c-9.372.17-18.925.594-28.777 1.303-5.742.413-14.334 4.409-23.188 9.678-5.355 3.187-10.689 6.803-15.555 10.411-3.49 2.576-2.551 7.737 2.538 7.424 20.946-1.285 44.196-1.713 66.708-1.706zM20.001 239h2.98a33.066 33.066 0 0 1-.979-8c0-18.222 14.777-33 33-33s33 14.778 33 33c0 2.755-.34 5.43-.976 7.989 28.237-.008 56-.017 84.123-.016a33.054 33.054 0 0 1-.973-7.973c0-18.222 14.777-33 33-33 18.222 0 33 14.778 33 33a33.05 33.05 0 0 1-.979 7.998l3.804.003c7.293.006 16.999.5 16.999-10.361v-7.146c0-3.602-1.415-6.703-4.135-9.064l-1.864-1.617c0-7.022-.138-13.554-.611-19.811H243c-2.203 0-3.466-1.865-4-4l-1-4c-.534-2.135 1.799-4 4-4h5.97c-1.966-11.772-5.738-23.02-12.831-35.366-2.532-4.408-6.067-7.466-11.137-7.823-28.389-2.001-55.629-2.353-84.344-.287-18.054 1.298-50.494 24.991-62.656 37.288-12.619 2.138-66.356 9.212-69.675 23.3-.069.293-.134.59-.195.889h11.87c-1.1 4.397-3.964 8.497-9.246 9l-3.724.354c-.227 2.613-.492 5.214-1.03 7.646C1.901 215.368 0 217.79 0 221.232v5.139C0 237.698 11.231 239 20.001 239zm35-33c13.807 0 25 11.193 25 25s-11.193 25-25 25-25-11.193-25-25 11.193-25 25-25zm7.779 17.221c-1.99-1.99-4.74-3.221-7.779-3.221s-5.789 1.231-7.779 3.221-3.221 4.74-3.221 7.779 1.231 5.789 3.221 7.779A10.966 10.966 0 0 0 55.001 242c3.039 0 5.789-1.231 7.779-3.221s3.221-4.74 3.221-7.779-1.231-5.789-3.221-7.779zM203.175 206c13.807 0 25 11.193 25 25s-11.193 25-25 25-25-11.193-25-25 11.193-25 25-25zm7.779 17.221c-1.99-1.99-4.74-3.221-7.779-3.221s-5.789 1.231-7.779 3.221-3.221 4.74-3.221 7.779 1.231 5.789 3.221 7.779c1.99 1.99 4.74 3.221 7.779 3.221s5.789-1.231 7.779-3.221c1.99-1.99 3.221-4.741 3.221-7.779s-1.231-5.789-3.221-7.779z"/></svg>