<?xml version="1.0" encoding="utf-8"?>
<svg viewBox="0 0 50 50" fill="#710001" xmlns="http://www.w3.org/2000/svg">
  <path style="line-height: normal; text-indent: 0px; text-align: start; text-decoration: none solid rgb(0, 0, 0); text-transform: none; isolation: auto; mix-blend-mode: normal; fill: rgb(253, 0, 0);" d="M 41.269531 1.9882812 C 40.491297 2.0198949 39.75997 2.5067573 39.46875 3.2734375 L 38.599609 5.5058594 L 37.773438 5.1914062 C 36.285272 4.6257826 34.589365 5.3847936 34.027344 6.8769531 C 32.531609 10.848284 29.839721 17.821756 29.347656 19.306641 C 29.221803 19.684714 28.993279 19.805918 28.666016 19.908203 C 28.338752 20.010488 28.050781 20 28.050781 20 A 1.0003133 1.0003133 0 1 0 27.949219 21.998047 C 27.949219 21.998047 28.564685 22.034867 29.263672 21.816406 C 29.962658 21.597941 30.882947 21.030379 31.246094 19.939453 A 1.0001 1.0001 0 0 0 31.246094 19.9375 C 31.628567 18.783078 34.398332 11.570153 35.900391 7.5820312 C 36.080369 7.1041909 36.584618 6.8781706 37.064453 7.0605469 L 37.841797 7.3554688 L 34.300781 17.121094 L 41.691406 20.007812 L 44.962891 10.986328 A 1.0001 1.0001 0 0 0 45.056641 10.792969 L 46.878906 6.1074219 A 1.0001 1.0001 0 0 0 46.880859 6.0996094 C 47.268379 5.0794181 46.745029 3.9108369 45.724609 3.5214844 L 45.722656 3.5195312 L 42.050781 2.1152344 A 1.0001 1.0001 0 0 0 42.048828 2.1152344 C 41.79355 2.0182684 41.528943 1.9777434 41.269531 1.9882812 z M 41.337891 3.984375 L 45.011719 5.3886719 L 45.015625 5.3828125 L 45.013672 5.390625 A 1.0001 1.0001 0 0 0 45.011719 5.390625 L 44.148438 7.6132812 L 40.470703 6.2167969 L 41.335938 3.9921875 A 1.0001 1.0001 0 0 0 41.337891 3.984375 z M 13 18 C 11.4652 18 10.102382 18.669724 8.9902344 19.640625 C 7.8780869 20.611526 6.9744489 21.886748 6.2167969 23.255859 C 4.7014928 25.994082 3.7770954 29.118379 3.3652344 31.078125 A 1.0001 1.0001 0 0 0 3.3613281 31.101562 C 3.1778712 32.089073 2.8289019 34.545445 3.0507812 36.916016 C 3.1617209 38.101301 3.4033965 39.270218 3.9941406 40.251953 C 4.5848884 41.233685 5.67075 42 7 42 C 9.28325 42 10.831787 40.969461 11.886719 40.109375 C 12.414185 39.679332 12.841966 39.296471 13.171875 39.083984 C 13.31565 38.991384 13.377788 39.020695 13.474609 38.984375 C 13.530889 39.380797 13.567169 39.953173 13.628906 40.578125 C 13.694646 41.243659 13.779612 41.941905 14.066406 42.607422 C 14.209803 42.94018 14.412584 43.277332 14.742188 43.550781 C 15.071789 43.824231 15.536046 43.99748 15.994141 44 C 16.582702 44.0031 17.006542 43.738169 17.337891 43.488281 C 17.669239 43.238394 17.940064 42.960349 18.191406 42.710938 C 18.442749 42.461526 18.673734 42.240139 18.841797 42.115234 C 19.00986 41.990331 19.084167 42 19 42 C 19.015736 42 19.013607 41.995073 19.025391 41.994141 C 19.067189 42.095736 19.154002 42.470513 19.292969 43.009766 C 19.583186 44.135943 20.355418 45.814757 22.628906 46.974609 A 1.0005805 1.0005805 0 1 0 23.537109 45.191406 C 21.7276 44.268258 21.459048 43.406291 21.228516 42.511719 C 21.113249 42.064432 21.076992 41.602883 20.800781 41.052734 C 20.52457 40.502586 19.75 40 19 40 C 18.415833 40 17.986 40.258889 17.648438 40.509766 C 17.310875 40.760642 17.034408 41.041756 16.78125 41.292969 C 16.528092 41.544182 16.298089 41.765981 16.132812 41.890625 C 16.063937 41.942568 16.024659 41.960923 15.998047 41.974609 C 15.9829 41.958528 15.950833 41.928914 15.902344 41.816406 C 15.782888 41.539205 15.680349 40.9807 15.621094 40.380859 C 15.561834 39.781018 15.534544 39.144686 15.441406 38.564453 C 15.394836 38.274336 15.340794 37.998011 15.191406 37.689453 C 15.042019 37.380895 14.673483 36.94745 14.132812 36.875 C 13.347364 36.770247 12.633716 37.052049 12.089844 37.402344 C 11.545971 37.752639 11.097206 38.172012 10.623047 38.558594 C 9.6747289 39.331757 8.71675 40 7 40 C 6.32925 40 6.0419434 39.777281 5.7070312 39.220703 C 5.3721191 38.664126 5.1362009 37.74548 5.0410156 36.728516 C 4.8507859 34.696092 5.1744457 32.298911 5.328125 31.470703 C 5.3282388 31.47009 5.3280113 31.467397 5.328125 31.466797 C 5.7046097 29.684206 6.6053053 26.684886 7.9667969 24.224609 C 8.6498948 22.990221 9.4498502 21.894459 10.306641 21.146484 C 11.163431 20.398504 12.0348 20 13 20 C 14.166667 20 14.753283 20.467238 15.25 21.361328 C 15.746717 22.255419 16 23.611111 16 25 A 1.0001 1.0001 0 1 0 18 25 C 18 23.388889 17.753283 21.744581 17 20.388672 C 16.246717 19.032762 14.833333 18 13 18 z M 33.480469 19.275391 L 26.591797 37.691406 C 26.586857 37.704587 26.591247 37.712353 26.587891 37.724609 A 1.0001 1.0001 0 0 0 26.519531 38.146484 L 26.798828 44.853516 L 26.074219 46.621094 A 1.0003201 1.0003201 0 1 0 27.925781 47.378906 L 28.556641 45.839844 L 33.761719 40.945312 A 1.0003547 1.0003547 0 0 0 34.068359 40.347656 L 40.871094 22.160156 L 33.480469 19.275391 z M 28.533203 38.419922 L 32.085938 39.775391 L 28.720703 42.939453 L 28.533203 38.419922 z" font-weight="400" font-family="sans-serif" white-space="normal" overflow="visible"/>
</svg>