<svg enable-background="new 0 0 128 128" viewBox="0 0 48 48" xmlns="http://www.w3.org/2000/svg"><circle cx="23.871248" cy="23.929593" fill="#fff" r="22.6415" stroke-width=".45283"/><g fill="#444b54" transform="matrix(.45283 0 0 .45283 -4.969948 -5.051527)"><path d="m63.691 117c-29.2 0-53-23.8-53-53s23.8-53 53-53 53 23.8 53 53-23.8 53-53 53zm0-100c-25.9 0-47 21.1-47 47s21.1 47 47 47 47-21.1 47-47-21.1-47-47-47z"/><path d="m63.691 83c-1.7 0-3-1.3-3-3v-25c0-1.7 1.3-3 3-3s3 1.3 3 3v25c0 1.7-1.3 3-3 3z"/><path d="m63.691 48c-.2 0-.4 0-.6-.1-.2 0-.4-.1-.6-.2s-.3-.2-.5-.3-.3-.2-.5-.4c-.1-.1-.3-.3-.4-.5s-.2-.3-.3-.5-.1-.4-.2-.6c0-.2-.1-.4-.1-.6 0-.8.3-1.6.9-2.1 1.1-1.1 3.1-1.1 4.2 0 .6.6.9 1.3.9 2.1 0 .2 0 .4-.1.6 0 .2-.1.4-.2.6s-.2.4-.3.5c-.1.2-.2.3-.4.5-.1.1-.3.3-.5.4s-.3.2-.5.3-.4.1-.6.2c.2.1 0 .1-.2.1z"/><path d="m63.691 83c-.8 0-1.5-.3-2.1-.9l-10-10c-1.2-1.2-1.2-3.1 0-4.2 1.2-1.2 3.1-1.2 4.2 0l7.9 7.9 7.9-7.9c1.2-1.2 3.1-1.2 4.2 0 1.2 1.2 1.2 3.1 0 4.2l-10 10c-.6.6-1.3.9-2.1.9z"/></g></svg>