<?xml version="1.0" encoding="utf-8"?>
<!-- Generator: Adobe Illustrator 23.0.1, SVG Export Plug-In . SVG Version: 6.00 Build 0)  -->
<svg version="1.1" id="Layer_1" xmlns="http://www.w3.org/2000/svg" xmlns:xlink="http://www.w3.org/1999/xlink" x="0px" y="0px"
	 viewBox="0 0 1271.02 477.94" style="enable-background:new 0 0 1271.02 477.94;" xml:space="preserve">
<style type="text/css">
	.st0{fill:#263473;}
	.st1{fill-rule:evenodd;clip-rule:evenodd;fill:#263473;}
	.st2{fill:#89878C;}
	.st3{font-family:'CenturyGothicPro';}
	.st4{font-size:116px;}
	.st5{font-family:'CenturyGothicPro-Bold';}
	.st6{font-size:36px;}
	.st7{letter-spacing:-1;}
</style>
<g>
	<g>
		<path class="st0" d="M484.91,219.45v13.8h-36.47v12.16h31.87v10.38h-31.87v28.98h-16.69v-65.32H484.91z"/>
	</g>
	<g>
		<path class="st0" d="M545.65,281.61c-5.74,3.33-12.01,4.99-18.83,4.99c-6.81,0-13.1-1.67-18.86-4.99
			c-5.76-3.33-10.31-7.86-13.64-13.6c-3.33-5.74-4.99-12-4.99-18.79v-29.9h16.69v32.66c0,5.74,2,10.61,6.01,14.62
			c4.01,4.01,8.88,6.01,14.62,6.01s10.61-2,14.62-6.01c4.01-4.01,6.01-8.88,6.01-14.62v-32.66h16.95v29.9
			c0,6.79-1.67,13.06-4.99,18.79C555.93,273.75,551.39,278.28,545.65,281.61z"/>
	</g>
	<g>
		<path class="st0" d="M598.17,286.61c-6.75,0-12.06-2.28-15.94-6.83c-3.88-4.56-5.82-9.94-5.82-16.17v-33.78h-7.75v-10.38h7.75
			v-20.9h16.62v20.9h14.33v10.38h-14.33v32.2c0,9.11,4.4,12.75,13.21,10.91l3.94,11.37C606.25,285.84,602.24,286.61,598.17,286.61z"
			/>
	</g>
	<g>
		<path class="st0" d="M670.93,281.61c-5.74,3.33-12.01,4.99-18.83,4.99c-6.81,0-13.1-1.67-18.86-4.99s-10.31-7.86-13.63-13.6
			c-3.33-5.74-5-12-5-18.79v-29.9h16.69v32.66c0,5.74,2,10.61,6.01,14.62c4.01,4.01,8.88,6.01,14.62,6.01s10.61-2,14.62-6.01
			c4.01-4.01,6.01-8.88,6.01-14.62v-32.66h16.95v29.9c0,6.79-1.67,13.06-4.99,18.79C681.2,273.75,676.67,278.28,670.93,281.61z"/>
	</g>
	<g>
		<path class="st0" d="M737.44,233.44c-1.93-0.61-3.99-0.92-6.18-0.92c-13.76,0-20.63,6.88-20.63,20.63v31.61h-16.69v-29.9
			c0-24.88,12.51-37.35,37.52-37.39c2.01,0,4.01,0.15,5.98,0.46V233.44z"/>
	</g>
	<g>
		<path class="st0" d="M800.56,222.08c6.44,3.07,11.51,7.26,15.21,12.58c3.7,5.32,5.49,11.12,5.36,17.38c0,1.18-0.13,2.45-0.39,3.81
			h-16.82h-48.83c0.96,4.78,3.75,8.72,8.35,11.83c4.6,3.11,10.01,4.8,16.23,5.06c9.99,0.48,17.87-1.82,23.66-6.9l15.71,4.86
			c-3.51,4.56-8.51,8.37-15.02,11.43c-6.51,3.07-14.62,4.56-24.35,4.47c-7.58-0.09-14.57-1.67-20.96-4.73
			c-6.4-3.07-11.46-7.25-15.18-12.55c-3.72-5.3-5.5-11.06-5.32-17.28c0.13-4.73,1.3-9.22,3.52-13.47c2.21-4.25,5.15-7.92,8.81-11.01
			c3.66-3.09,8.02-5.54,13.08-7.36c5.06-1.82,10.42-2.73,16.07-2.73C787.16,217.48,794.12,219.01,800.56,222.08z M765.21,235.28
			c-4.25,2.67-7.27,6.11-9.07,10.32h47.31c-1.53-4.16-4.52-7.59-8.97-10.28c-4.45-2.69-9.39-4.04-14.82-4.04
			C774.28,231.28,769.46,232.61,765.21,235.28z"/>
	</g>
	<g>
		<path class="st1" d="M825.05,209.37h3.29c0.7,0,1.24-0.07,1.64-0.22c0.39-0.14,0.69-0.37,0.89-0.69c0.2-0.32,0.31-0.66,0.31-1.04
			c0-0.55-0.2-1-0.59-1.35c-0.4-0.35-1.02-0.53-1.87-0.53h-3.66V209.37z M827.57,200.61c5.16,0,9.34,4.18,9.34,9.34
			c0,5.16-4.18,9.34-9.34,9.34c-5.16,0-9.34-4.18-9.34-9.34C818.23,204.79,822.42,200.61,827.57,200.61z M827.57,199.4
			c5.83,0,10.55,4.72,10.55,10.55c0,5.83-4.72,10.55-10.55,10.55c-5.83,0-10.55-4.72-10.55-10.55
			C817.02,204.12,821.74,199.4,827.57,199.4z M823.51,215.84v-11.57h5.13c1.03,0,1.82,0.1,2.35,0.31c0.54,0.21,0.96,0.57,1.29,1.1
			s0.48,1.11,0.48,1.74c0,0.82-0.27,1.51-0.8,2.08c-0.53,0.56-1.35,0.92-2.46,1.07c0.41,0.19,0.71,0.39,0.92,0.58
			c0.45,0.41,0.87,0.92,1.27,1.54l2,3.15h-1.91l-1.53-2.41c-0.44-0.7-0.81-1.23-1.1-1.6c-0.29-0.37-0.55-0.62-0.78-0.77
			c-0.23-0.15-0.46-0.25-0.7-0.31c-0.17-0.03-0.45-0.05-0.85-0.05h-1.77v5.14H823.51z"/>
	</g>
</g>
<text transform="matrix(1 0 0 1 849.2006 284.7658)" class="st2 st3 st4">pro</text>
<g>
	<text transform="matrix(1 0 0 1 430.8846 206.5759)" class="st2 st5 st6 st7">beta</text>
</g>
<g>
	<path class="st1" d="M378.9,257.27c0.67-10.73,8.5-24.83,7.28-31.32c8.4,4.72,9.37,26.36,5.95,34.92
		C388.09,270.99,377.27,268.12,378.9,257.27 M363.72,250.41c8.48-20.48,16.02-39.6-2.72-58.43c31.69,9.37,55.04,32.98,46.55,70.37
		C399.55,297.56,350.77,279.3,363.72,250.41"/>
	<path class="st1" d="M331.55,267.34c8.93,6,17.06,19.82,23.3,22.06c-8.43,4.78-27.64-5.34-33.27-12.59
		C314.92,268.24,323.01,260.45,331.55,267.34 M345.34,257.85c13.31,17.61,25.94,33.72,51.92,27.24
		c-24.51,22.31-57.01,30.3-84.94,4.13C286.02,264.57,327.07,232.18,345.34,257.85"/>
	<path class="st1" d="M345.79,220.61c-9.57,4.86-25.7,5.25-30.65,9.59c-0.22-9.64,17.9-21.44,27.01-22.83
		C352.91,205.73,355.96,216.51,345.79,220.61 M347.63,237.18c-21.95,3.06-42.24,6.25-48.88,31.95c-8.1-32.07,0.31-64.16,36.8-75.79
		C369.92,182.39,379.09,233.7,347.63,237.18"/>
</g>
<path class="st1" d="M308.2,310.72c3.46-0.88,6.31-2.79,9.22-4.9c1.71,1.95,6.74,4.38,9.34,5.92c-6.54,6.33-18.56,10.03-18.56,10.03
	l-4.05-1.77c-38.36-16.73-71.87-46.32-71.87-91.16v-58.1l10.54,0.42c17.71,0.71,45.42-9.61,58.98-20.65l6.4-5.21l6.4,5.21
	c13.56,11.04,41.27,21.36,58.98,20.65l10.54-0.42l0,19.75c-3.35-2.19-7.2-3.24-10.13-3.7l0-5.5c-23.03,0.93-52.95-12.47-65.78-22.92
	C280.68,181.43,261.17,259.07,308.2,310.72z"/>
</svg>
