<?xml version="1.0" encoding="utf-8"?>
<svg version="1.1" id="Layer_1" x="0px" y="0px" viewBox="0 0 128 128" style="enable-background:new 0 0 128 128;" xmlns="http://www.w3.org/2000/svg">
  <g>
    <g>
      <rect x="24" y="24" width="80" height="80" style="fill:#444B54;"/>
    </g>
    <g>
      <path d="M24,107c-1.7,0-3-1.3-3-3V24c0-1.7,1.3-3,3-3s3,1.3,3,3v80C27,105.7,25.7,107,24,107z" style="fill:#444B54;"/>
    </g>
    <g>
      <path d="M104,107c-1.7,0-3-1.3-3-3V24c0-1.7,1.3-3,3-3s3,1.3,3,3v80C107,105.7,105.7,107,104,107z" style="fill:#444B54;"/>
    </g>
    <path d="M114,21H14c-4.4,0-8,3.6-8,8v65c0,1.7,1.3,3,3,3s3-1.3,3-3v-7h12c1.7,0,3-1.3,3-3s-1.3-3-3-3H12V67h12 c1.7,0,3-1.3,3-3s-1.3-3-3-3H12V47h12c1.7,0,3-1.3,3-3s-1.3-3-3-3H12V29c0-1.1,0.9-2,2-2h100c1.1,0,2,0.9,2,2v12h-12 c-1.7,0-3,1.3-3,3s1.3,3,3,3h12v14h-12c-1.7,0-3,1.3-3,3s1.3,3,3,3h12v14h-12c-1.7,0-3,1.3-3,3s1.3,3,3,3h12v12c0,1.1-0.9,2-2,2H19 c-1.7,0-3,1.3-3,3s1.3,3,3,3h95c4.4,0,8-3.6,8-8V29C122,24.6,118.4,21,114,21z" style="fill:#444B54;"/>
  </g>
  <path d="M 64.574 73.136 C 59.604 73.136 55.537 69.068 55.537 64.098 C 55.537 59.128 59.604 55.061 64.574 55.061 C 69.544 55.061 73.611 59.128 73.611 64.098 C 73.611 69.068 69.544 73.136 64.574 73.136 Z M 64.574 58.075 C 61.261 58.075 58.55 60.785 58.55 64.098 C 58.55 67.412 61.261 70.122 64.574 70.122 C 67.888 70.122 70.6 67.412 70.6 64.098 C 70.6 60.785 67.888 58.075 64.574 58.075 Z" style="fill: rgb(254, 254, 254);"/>
  <g fill="#444b54" style="" transform="matrix(0.502034, 0, 0, 0.502034, 32.554615, 31.986544)">
    <path d="m108 90.8c-.5 0-1-.1-1.4-.4-1.5-.8-2-2.6-1.2-4.1 3.6-6.7 5.6-14.5 5.6-22.3 0-25.9-21.1-47-47-47-7.9 0-15.7 2-22.6 5.8-1.5.8-3.3.3-4.1-1.2s-.3-3.3 1.2-4.1c7.8-4.2 16.6-6.5 25.5-6.5 29.2 0 53 23.8 53 53 0 8.8-2.2 17.6-6.4 25.3-.5 1-1.6 1.5-2.6 1.5z" style="fill: rgb(253, 0, 0);"/>
    <path d="m64 117c-29.2 0-53-23.8-53-53 0-8.8 2.2-17.6 6.4-25.3.8-1.5 2.6-2 4.1-1.2s2 2.6 1.2 4.1c-3.7 6.8-5.7 14.6-5.7 22.4 0 25.9 21.1 47 47 47 12.6 0 24.4-4.9 33.2-13.8 1.2-1.2 3.1-1.2 4.2 0 1.2 1.2 1.2 3.1 0 4.2-9.9 10.1-23.2 15.6-37.4 15.6z" style="fill: rgb(253, 0, 0);"/>
    <path d="m118 121c-.2 0-.4 0-.6-.1-.2 0-.4-.1-.6-.2s-.3-.2-.5-.3-.3-.2-.5-.4c-.6-.6-.9-1.3-.9-2.1 0-.2 0-.4.1-.6 0-.2.1-.4.2-.6s.2-.3.3-.5.2-.3.4-.5c1.1-1.1 3.1-1.1 4.2 0 .1.1.3.3.4.5s.2.3.3.5.1.4.2.6c0 .2.1.4.1.6 0 .8-.3 1.6-.9 2.1-.1.1-.3.3-.5.4s-.3.2-.5.3-.4.1-.6.2-.4.1-.6.1z" style="fill: rgb(253, 0, 0);"/>
    <path d="m108 111c-.8 0-1.5-.3-2.1-.9l-98-98c-1.2-1.1-1.2-3.1 0-4.2 1.2-1.2 3.1-1.2 4.2 0l98 98c1.2 1.2 1.2 3.1 0 4.2-.6.6-1.3.9-2.1.9z" style="fill: rgb(253, 0, 0);"/>
  </g>
</svg>