<?xml version="1.0" encoding="utf-8"?>
<svg version="1.1" id="Layer_1" x="0px" y="0px" viewBox="0 0 128 128" style="enable-background:new 0 0 128 128;" xmlns="http://www.w3.org/2000/svg">
  <g>
    <g style="" transform="matrix(0.623022, 0, 0, 0.623022, 4.364024, 16.581091)">
      <path d="M101,14H47c-5.5,0-10,4.5-10,10v90c0,5.5,4.5,10,10,10h64c5.5,0,10-4.5,10-10V34C121,23,112,14,101,14z" style="fill:#FFFFFF;"/>
    </g>
    <g style="" transform="matrix(0.623022, 0, 0, 0.623022, 4.364024, 16.581091)">
      <g>
        <path d="M84.2,87h-29c-1.7,0-3-1.3-3-3s1.3-3,3-3h29c1.7,0,3,1.3,3,3S85.9,87,84.2,87z" style="fill: rgb(0, 72, 160);"/>
      </g>
      <g>
        <g>
          <path d="M99,57H55c-1.7,0-3-1.3-3-3s1.3-3,3-3h44c1.7,0,3,1.3,3,3S100.7,57,99,57z" style="fill: rgb(0, 72, 160);"/>
        </g>
        <g>
          <path d="M99,72H55c-1.7,0-3-1.3-3-3s1.3-3,3-3h44c1.7,0,3,1.3,3,3S100.7,72,99,72z" style="fill: rgb(0, 72, 160);"/>
        </g>
        <g>
          <path d="M99.2,87H99c-1.7,0-3-1.3-3-3s1.3-3,3-3h0.2c1.7,0,3,1.3,3,3S100.9,87,99.2,87z" style="fill: rgb(0, 72, 160);"/>
        </g>
      </g>
    </g>
    <g style="" transform="matrix(0.623022, 0, 0, 0.623022, 4.364024, 16.581091)">
      <path d="M37,127c-0.2,0-0.4,0-0.6-0.1c-0.2,0-0.4-0.1-0.6-0.2c-0.2-0.1-0.4-0.2-0.5-0.3c-0.2-0.1-0.3-0.2-0.5-0.4 c-0.1-0.1-0.3-0.3-0.4-0.4c-0.1-0.2-0.2-0.3-0.3-0.5c-0.1-0.2-0.1-0.4-0.2-0.6c0-0.2-0.1-0.4-0.1-0.6c0-0.8,0.3-1.6,0.9-2.1 c0.7-0.7,1.7-1,2.7-0.8c0.2,0,0.4,0.1,0.6,0.2c0.2,0.1,0.4,0.2,0.5,0.3c0.2,0.1,0.3,0.2,0.5,0.4c0.6,0.6,0.9,1.3,0.9,2.1 s-0.3,1.6-0.9,2.1c-0.1,0.1-0.3,0.3-0.5,0.4c-0.2,0.1-0.3,0.2-0.5,0.3c-0.2,0.1-0.4,0.1-0.6,0.2C37.4,127,37.2,127,37,127z" style="fill:#444B54;"/>
    </g>
    <g style="" transform="matrix(0.623022, 0, 0, 0.623022, 4.364024, 16.581091)">
      <path d="M51.6,127c-0.7,0-1.4-0.2-1.9-0.7c-1.3-1.1-1.4-3-0.3-4.2l2.9-3.4c1.3-2,3.5-3.2,5.8-3.1 c2.3,0.1,4.3,1.4,5.4,3.5l0.9,1.7c0,0.1,0.1,0.2,0.3,0.2c0.2,0,0.3-0.1,0.3-0.2l2.1-6.7c0.9-2.8,3.3-4.8,6.2-5 c2.9-0.3,5.7,1.2,7,3.8l3,5.7c0.6,1.1,1.6,1.8,2.8,2c1.2,0.2,2.4-0.2,3.3-1.1c1.2-1.2,3.1-1.2,4.2,0s1.2,3.1,0,4.2 c-2.2,2.2-5.3,3.2-8.4,2.8c-3.1-0.5-5.7-2.3-7.2-5.1l-3-5.7c-0.3-0.6-0.9-0.7-1.2-0.6c-0.3,0-0.8,0.2-1,0.8l-2.1,6.7 c-0.8,2.5-2.9,4.2-5.5,4.4c-2.6,0.2-5-1.2-6.2-3.5l-0.9-1.7c-0.1-0.2-0.2-0.2-0.2-0.2c-0.1,0-0.4,0.1-0.6,0.4 c-0.1,0.1-0.2,0.3-0.3,0.4l-3,3.5C53.3,126.6,52.5,127,51.6,127z" style="fill:#444B54;"/>
    </g>
    <g style="" transform="matrix(0.623022, 0, 0, 0.623022, 4.364024, 16.581091)">
      <path d="M121,34h-10c-5.5,0-10-4.5-10-10V14h0C112,14,121,23,121,34L121,34z" style="fill:#FFFFFF;"/>
    </g>
    <g style="" transform="matrix(0.623022, 0, 0, 0.623022, 4.364024, 16.581091)">
      <path d="M121,37C121,37,121,37,121,37c-1.7,0-3-1.3-3-3c0-4.5-1.8-8.8-5-12c-3.2-3.2-7.5-5-12-5c-1.7,0-3-1.3-3-3 s1.3-3,3-3c6.2,0,11.9,2.4,16.3,6.8c4.3,4.4,6.7,10.1,6.7,16.3C124,35.7,122.6,37,121,37z" style="fill: rgb(0, 72, 160);"/>
    </g>
    <g style="" transform="matrix(0.623022, 0, 0, 0.623022, 4.364024, 16.581091)">
      <path d="M108.8,127c-1.7,0-3-1.3-3-3s1.3-3,3-3c5.4,0,9-2.8,9-7l0.1-67c0-1.7,1.3-3,3-3c0,0,0,0,0,0c1.7,0,3,1.3,3,3 l-0.1,67C123.8,121.5,117.5,127,108.8,127z" style="fill: rgb(0, 72, 160);"/>
    </g>
    <g style="" transform="matrix(0.623022, 0, 0, 0.623022, 4.364024, 16.581091)">
      <path d="M121,37h-10c-7.2,0-13-5.8-13-13l0-7H47c-1.7,0-3-1.3-3-3s1.3-3,3-3h54c1.7,0,3,1.3,3,3l0,10c0,3.9,3.1,7,7,7 h10c1.7,0,3,1.3,3,3S122.7,37,121,37z" style="fill: rgb(0, 72, 160);"/>
    </g>
    <g style="" transform="matrix(0.623022, 0, 0, 0.623022, 4.364024, 16.581091)">
      <g>
        <path d="M20.8,112.4L15,124l-5.8-11.6C6.4,106.9,5,100.8,5,94.6L5,24c0-5.5,4.5-10,10-10h0c5.5,0,10,4.5,10,10 l0,70.6C25,100.8,23.6,106.9,20.8,112.4z" style="fill:#FFFFFF;"/>
      </g>
      <g>
        <path d="M19,87.6c-1.7,0-3-1.3-3-3V29c0-1.7,1.3-3,3-3s3,1.3,3,3v55.6C22,86.2,20.7,87.6,19,87.6z" style="fill: rgb(0, 72, 160);"/>
      </g>
      <path d="M28,25.1V24c0-7.2-5.8-13-13-13S2,16.8,2,24v70.6c0,6.6,1.6,13.3,4.5,19.2l5.8,11.6c0.5,1,1.5,1.7,2.7,1.7 s2.2-0.6,2.7-1.7l5.8-11.6c3-5.9,4.5-12.6,4.5-19.2V31.1c3.4,0.5,6,3.4,6,6.9v27c0,1.7,1.3,3,3,3s3-1.3,3-3V38 C40,31.2,34.7,25.6,28,25.1z M22,94.6c0,5.7-1.4,11.4-3.9,16.5l-3.1,6.2l-3.1-6.2C9.4,106,8,100.3,8,94.6V24c0-3.9,3.1-7,7-7 s7,3.1,7,7V94.6z" style="fill:#444B54;"/>
    </g>
    <path style="fill: rgba(9, 76, 41, 0.84);" d="M 90.27 81.759 C 87.921 81.759 86.013 79.884 86.013 77.566 L 86.013 41.933 C 86.013 39.613 87.921 37.738 90.27 37.738 L 113.672 37.738 C 116.024 37.738 117.928 39.613 117.928 41.933 L 117.928 77.566 C 117.928 79.884 116.024 81.759 113.672 81.759 L 90.27 81.759 Z"/>
    <rect x="93.716" y="64.15" style="fill: rgb(236, 239, 241);" width="16.506" height="2.2"/>
    <rect x="93.716" y="68.553" style="fill: rgb(236, 239, 241);" width="16.506" height="2.2"/>
    <rect x="93.716" y="72.956" style="fill: rgb(236, 239, 241);" width="11.006" height="2.2"/>
    <rect x="93.716" y="44.341" style="fill-rule: evenodd; clip-rule: evenodd; fill: rgb(185, 221, 252);" width="16.506" height="16.506"/>
    <path style="fill: rgb(255, 153, 0);" d="M 101.974 58.554 C 100.13 58.554 100.048 55.842 100.048 55.842 L 100.048 53.533 L 103.899 53.533 L 103.899 55.842 C 103.899 55.842 103.817 58.554 101.974 58.554 Z"/>
    <circle style="fill: rgb(255, 168, 0);" cx="105.436" cy="51.221" r="0.77"/>
    <circle style="fill: rgb(255, 168, 0);" cx="98.503" cy="51.221" r="0.77"/>
    <path style="fill: rgb(255, 184, 64);" d="M 105.436 48.906 C 105.436 45.966 98.503 46.994 98.503 48.906 C 98.503 49.314 98.503 51.197 98.503 51.607 C 98.503 53.52 100.056 55.07 101.971 55.07 C 103.883 55.07 105.436 53.52 105.436 51.607 C 105.436 51.197 105.436 49.316 105.436 48.906 Z"/>
    <path style="fill: rgb(66, 66, 66);" d="M 101.974 45.444 C 99.632 45.444 98.122 47.337 98.122 49.681 C 98.122 49.99 98.122 50.558 98.122 50.558 L 98.892 51.221 L 98.892 49.295 L 103.513 47.756 L 105.05 49.295 L 105.05 51.221 L 105.825 50.55 C 105.825 50.55 105.825 49.99 105.825 49.681 C 105.825 48.128 105.426 46.594 103.51 46.213 L 103.124 45.444 L 101.974 45.444 Z"/>
    <circle style="fill: rgb(122, 71, 18);" cx="103.51" cy="51.221" r="0.386"/>
    <ellipse style="fill: rgb(122, 71, 18);" cx="100.431" cy="51.221" rx="0.386" ry="0.386"/>
    <path style="fill: rgb(195, 52, 0);" d="M 103.899 55.842 C 103.899 55.842 103.22 56.609 101.974 56.609 C 100.722 56.609 100.048 55.842 100.048 55.842 C 100.048 55.842 95.807 56.607 95.807 60.85 L 108.134 60.85 C 108.134 56.623 103.899 55.842 103.899 55.842 Z"/>
  </g>
</svg>