<svg viewBox="0 0 48 48" xmlns="http://www.w3.org/2000/svg"><g transform="matrix(1.108545 0 0 1.108545 -2.221366 -1.904029)"><path d="m32 32h-2v-1c0-2.4.9-4.7 2.6-6.4 3.5-3.5 9.2-3.5 12.7 0l-1.4 1.4c-2.7-2.7-7.2-2.7-9.9 0-1.3 1.3-2.1 3.1-2.1 5v1z" fill="#226fb1"/><path d="m39.2 18.7c-2.5-7.2-8-7.7-9.7-7.7h-.6l-.1 2c2.5.6 4.1 2.6 4.9 3.7l-17.3 9.6s1.7 1.7 1.7 5.7h9.9l.1-1.9c.4-5.4 4.9-9.7 10.2-10l1.3-.1zm-23.5 6.6c-3.1-3.1-8.2-3.1-11.3 0l-1.4-1.4c3.9-3.9 10.2-3.9 14.1 0z" fill="#226fb1"/><path d="m39 25c-3.3 0-6 2.7-6 6s2.7 6 6 6 6-2.7 6-6-2.7-6-6-6zm0 10c-2.2 0-4-1.8-4-4s1.8-4 4-4 4 1.8 4 4-1.8 4-4 4zm-29-10c-3.3 0-6 2.7-6 6s2.7 6 6 6 6-2.7 6-6-2.7-6-6-6zm0 10c-2.2 0-4-1.8-4-4s1.8-4 4-4 4 1.8 4 4-1.8 4-4 4z"/><path d="m41 31c0 1.1-.9 2-2 2s-2-.9-2-2 .9-2 2-2 2 .9 2 2zm-29 0c0 1.1-.9 2-2 2s-2-.9-2-2 .9-2 2-2 2 .9 2 2z" fill="#90a4ae"/><path d="m39.6 20-.4-1.2c-.3-1-.7-1.8-1.2-2.5-1.2.4-2 1.5-2 2.8 0 .5.1.9.3 1.3.6-.2 1.3-.3 2-.3z" fill="#fff"/><path d="m32.1 17.6c-1-1-3-2.6-6.1-2.6-4 0-6.1 2.9-6.8 5h-3.2c-.7 0-1.5-.7-2.4-1.3-1.1-.8-2.3-1.7-3.6-1.7h-6v2h-.4l2 2h.4c5.6 0 10.3 5.3 10.3 5.3zm1.9-2.6h-6c-.6 0-1-.4-1-1s.4-1 1-1h6c.6 0 1 .4 1 1s-.4 1-1 1z" fill="#455a64"/><path d="m10 19c.7 0 1.5.7 2.4 1.3 1.1.8 2.3 1.7 3.6 1.7h4.6l-1.6-2h-3c-.7 0-1.5-.7-2.4-1.3-1.1-.8-2.3-1.7-3.6-1.7h-6c-2 0-2 2-2 2zm3.8 11 3.5-1.9c-.5-1.2-1-1.7-1-1.7l-6.8 3.8c-.4.2-.6.7-.5 1.1s.5.7 1 .7h8c0-.8-.1-1.4-.2-2zm26.1.6-4.9-9.8c-.6.2-1.2.5-1.8.9l4.9 9.8c.2.4.5.6.9.6.2 0 .3 0 .4-.1.5-.4.7-1 .5-1.4z" fill="#37474f"/></g></svg>