<svg viewBox="0 0 48 48" xmlns="http://www.w3.org/2000/svg"><g transform="matrix(1.043478 0 0 1.043478 -1.043472 -1.037625)"><g fill="#226fb1"><path d="m1 20.999h34v11.001h-34z"/><path d="m36 20.999a2 2 0 0 1 -2 2l-20 .001a2 2 0 0 1 -2-2v-7.998a2 2 0 0 1 2-2l13-.002c3 0 9 9.999 9 9.999z"/><path d="m30 30a2 2 0 0 0 2 2h13a2 2 0 0 0 2-2v-6.001c0-1.104-5-3-10-3-4 0-7 .896-7 2z"/></g><path d="m22 20.999h11.71c-2.565-4.506-5.611-7.558-6.803-7.999h-4.907zm-7-7.999h5v7.999h-5z" fill="#8b92b5"/><path d="m3 23h-2v7.002h2c.552 0 1-.449 1-1v-5.002c0-.552-.448-1-1-1z" fill="#ff3d00"/><path d="m43 21.824v3.176c0 .552.448 1 1 1h3v-2.001c0-.634-1.65-1.527-4-2.175z" fill="#f8f8f8"/><path d="m15 32c0 3.849-4.168 6.255-7.501 4.33-1.547-.894-2.5-2.544-2.5-4.331 0-3.849 4.168-6.255 7.501-4.33 1.547.894 2.5 2.544 2.5 4.331m27 0c0 3.849-4.167 6.255-7.5 4.33-1.547-.893-2.5-2.544-2.5-4.33 0-3.849 4.167-6.255 7.5-4.33 1.547.893 2.5 2.544 2.5 4.33"/><path d="m12 32c.035 1.539-1.61 2.539-2.96 1.799-.655-.358-1.056-1.052-1.039-1.798.034-1.539 1.722-2.464 3.038-1.665.583.354.946.982.961 1.664m27 0c.035 1.539-1.61 2.539-2.96 1.799-.655-.358-1.056-1.052-1.039-1.798.034-1.539 1.722-2.464 3.038-1.665.583.354.946.982.961 1.664" fill="#bcaaa4"/></g></svg>