<svg viewBox="0 0 48 48" xmlns="http://www.w3.org/2000/svg"><g transform="matrix(1.142857 0 0 1.142857 -3.413564 -3.757141)"><path d="m43 36h-14v-22h10.559c.861 0 1.625.551 1.897 1.368l3.544 10.632v8c0 1.105-.895 2-2 2m-14 0h-24c-1.105 0-2-.895-2-2v-25c0-1.105.895-2 2-2h22c1.105 0 2 .895 2 2z" fill="#226fb1"/><path d="m42 36c0 3.849-4.167 6.255-7.5 4.33-1.547-.893-2.5-2.544-2.5-4.33 0-3.849 4.167-6.255 7.5-4.33 1.547.893 2.5 2.544 2.5 4.33m-24 0c0 3.849-4.168 6.255-7.501 4.33-1.547-.894-2.5-2.544-2.5-4.331 0-3.849 4.168-6.255 7.501-4.33 1.547.894 2.5 2.544 2.5 4.331"/><path d="m39 36c.035 1.539-1.61 2.539-2.96 1.799-.655-.358-1.056-1.052-1.039-1.798.034-1.539 1.722-2.464 3.038-1.665.583.354.946.982.961 1.664m-24 0c.035 1.539-1.61 2.539-2.96 1.799-.655-.358-1.056-1.052-1.039-1.798.034-1.539 1.722-2.464 3.038-1.665.583.354.946.982.961 1.664" fill="#bcaaa4"/><path d="m41 25h-7c-.552 0-1-.448-1-1v-7c0-.552.448-1 1-1h5c.432 0 .813.275.949.684l2 6c.033.102.051.209.051.316v1c0 .552-.448 1-1 1" fill="#89909d"/><path d="m3 17h26v8h-26z" fill="#6c90b0"/></g></svg>