<svg viewBox="0 0 48 48" xmlns="http://www.w3.org/2000/svg"><path d="M46.905 20.017L42.3 10.199c-.496-1.468-1.76-3.126-3.767-3.126H4.486C1.095 7.073.02 8.148.02 11.538v24.558s0 2.233 2.233 2.233H44.67c2.234 0 2.234-2.233 2.234-2.233z" fill="#226fb1"/><path d="M38.03 11.538a.854.854 0 0 1 .046.108l.046.147.065.138 4.253 9.036v.618H4.486V11.538zm.503-2.232H3.928a1.67 1.67 0 0 0-1.674 1.674v11.163c0 .926.747 1.674 1.674 1.674h39.07c.926 0 1.674-.748 1.674-1.674v-1.675l-4.465-9.488s-.523-1.674-1.674-1.674z" fill="#8096a9"/><path d="M44.672 22.143c0 .926-.748 1.674-1.674 1.674H32.95a1.672 1.672 0 0 1-1.674-1.674V10.98c0-.927.748-1.674 1.674-1.674h5.582c1.15 0 1.674 1.674 1.674 1.674l4.465 9.488z" fill="#6c7271"/><path d="M41.323 38.329c0 4.296-4.651 6.982-8.372 4.833a5.58 5.58 0 0 1-2.79-4.833c0-4.297 4.65-6.982 8.372-4.834a5.581 5.581 0 0 1 2.79 4.834m-25.674 0c0 4.296-4.651 6.982-8.372 4.833a5.58 5.58 0 0 1-2.791-4.833c0-4.297 4.65-6.982 8.372-4.834a5.582 5.582 0 0 1 2.79 4.834"/><path d="M37.974 38.329c.039 1.718-1.796 2.834-3.304 2.008a2.233 2.233 0 0 1-1.16-2.007c.038-1.718 1.922-2.751 3.39-1.859a2.231 2.231 0 0 1 1.074 1.858m-25.674 0c.039 1.718-1.797 2.834-3.304 2.008a2.233 2.233 0 0 1-1.16-2.007c.038-1.718 1.922-2.751 3.39-1.859a2.233 2.233 0 0 1 1.074 1.858" fill="#bcaaa4"/><path d="M.579 30.515H.02v4.465h.558c.925 0 1.675-.75 1.675-1.674v-1.117c0-.924-.75-1.674-1.675-1.674z" fill="#ff3d00"/><path d="M48.02 31.073c0-.924-.758-1.674-1.694-1.674h-1.074a1.685 1.685 0 0 0-1.696 1.674v2.233c0 .924.758 1.674 1.694 1.674h1.075a1.685 1.685 0 0 0 1.696-1.674z" fill="#f7f7f7"/><path d="M17.88 23.817c-.615 0-1.115-.5-1.115-1.116V10.422a1.117 1.117 0 0 1 2.233 0v12.279c0 .616-.5 1.116-1.117 1.116z" fill="#8096a9"/></svg>