<svg enable-background="new 0 0 48 48" height="48" viewBox="0 0 48 48" width="48" xmlns="http://www.w3.org/2000/svg"><g transform="matrix(1.317508 0 0 1.317508 -7.592402 -8.875888)"><path d="m13 37c0-.553-.447-1-1-1h-3c-.553 0-1 .447-1 1v5c0 .553.447 1 1 1h3c.553 0 1-.447 1-1z"/><path d="m40 37c0-.553-.447-1-1-1h-3c-.553 0-1 .447-1 1v5c0 .553.447 1 1 1h3c.553 0 1-.447 1-1z"/></g><path d="m39.838 30.65h-31.62s4.425-11.858 5.27-13.176c.844-1.317 2.203-1.317 2.635-1.317h9.223 6.587c.282 0 1.853-.041 2.636 1.317.663 1.155 5.269 13.176 5.269 13.176z" fill="#e3f2fd"/><g fill="#fff" transform="matrix(1.317508 0 0 1.317508 -7.592402 -8.875888)"><path d="m38 29-14-1-14 1c-1.104 0-2 .896-2 2v8c0 .553.447 1 1 1h30c.553 0 1-.447 1-1v-8c0-1.104-.896-2-2-2z"/><path d="m30 20c.339 0 2.083.133 3.146 2.752.213.523 1.996 4.989 1.996 4.99l.503 1.258h-23.289l.502-1.261c.602-1.513 1.792-4.499 1.987-4.97 1.072-2.57 2.686-2.769 3.155-2.769h6 5.994zm.003-2s-.001 0-.003 0c0 0-1.999 0-6 0-3.919 0-5.838 0-6 0-.328 0-3.333 0-5 4-.254.61-2 5-2 5h-4c-.553 0-1 .447-1 1v2c0 .553.447 1 1 1h3 1 26 1 3c.553 0 1-.447 1-1v-2c0-.553-.447-1-1-1h-4s-1.787-4.476-2-5c-1.625-4-4.698-4-5-4-.005 0-.006 0-.006 0z"/></g><path d="m42.473 37.237c0 .728-.589 1.317-1.317 1.317h-34.256c-.728 0-1.316-.589-1.316-1.317v-3.953c0-.729.588-1.317 1.316-1.317h34.256c.728 0 1.317.588 1.317 1.317z" fill="#37474f"/><circle cx="8.876448" cy="35.26063" fill="#fff176" r="1.976262" stroke-width="1.317508"/><circle cx="39.179132" cy="35.26063" fill="#fff176" r="1.976262" stroke-width="1.317508"/><g fill="#43a047" transform="matrix(-1.53450118091 0 0 -1.53450118091 97.66415713196 47.41455620061)"><path d="m39.566 19.785h1.5v6.75h-1.5z"/><path d="m36.941 22.41h6.75v1.5h-6.75z"/></g><g transform="matrix(-1.57333328286 0 0 -1.57333328286 68.12702416448 27.74650315962)"><path d="m19.782 15.986-.214 1.494c.35.034.709.051 1.068.051v-1.5c-.29 0-.574-.018-.854-.045z" fill="#43a047"/><path d="m18.432 4.385-.506-1.419c-.528.185-1.034.433-1.51.734l.814 1.27c.375-.238.777-.434 1.202-.585z" fill="#dcedc8"/><path d="m16.181 5.805-1.07-1.055c-.393.395-.746.836-1.043 1.31l1.283.799c.238-.381.514-.736.83-1.054z" fill="#c5e1a5"/><path d="m14.772 8.062-1.428-.493c-.183.524-.309 1.073-.368 1.629l1.497.165c.05-.451.154-.886.299-1.301z" fill="#aed581"/><path d="m14.474 10.702-1.498.169c.058.554.185 1.103.371 1.632l1.427-.498c-.146-.416-.25-.851-.3-1.303z" fill="#9ccc65"/><path d="m15.355 13.211-1.283.798c.297.475.65.913 1.046 1.311l1.066-1.06c-.315-.316-.59-.67-.829-1.049z" fill="#8bc34a"/><path d="m17.233 15.094-.809 1.273c.472.299.979.544 1.509.734l.507-1.421c-.427-.151-.831-.348-1.207-.586z" fill="#8bc34a"/><g fill="#43a047"><path d="m20.683 4.031v-1.5c-.371 0-.746.017-1.115.051l.222 1.494c.292-.027.59-.045.893-.045z"/><path d="m20.452 2.531v1.5h.001c3.324 0 6.019 2.686 6.019 6s-2.695 6-6.019 6c-.001 0-.001 0-.001 0v1.5c4.148 0 7.524-3.365 7.524-7.5 0-4.136-3.376-7.5-7.524-7.5z"/></g></g></svg>