<svg enable-background="new 0 0 48 48" viewBox="0 0 48 48" xmlns="http://www.w3.org/2000/svg"><g transform="matrix(1.173419 0 0 1.173419 -4.841881 -3.826406)"><path d="m20.395 37c-5 0-5-6-5-6v-6h10v6s0 6-5 6z" fill="#ff9800"/><path d="m31.395 19c0 1.106-.896 2-2 2-1.105 0-2-.894-2-2 0-1.105.895-2 2-2 1.104 0 2 .895 2 2m-18 0c0-1.105-.896-2-2-2-1.106 0-2 .895-2 2 0 1.106.894 2 2 2 1.104 0 2-.894 2-2" fill="#ffa726"/><path d="m29.395 13c0-7.635-18-4.971-18 0v7c0 4.971 4.028 9 9 9 4.971 0 9-4.029 9-9z" fill="#ffb74d"/><path d="m20.395 4c-6.075 0-10 4.926-10 11v2.285l2 1.715v-5l12-4 4 4v5l2-1.742v-2.258c0-4.025-1.038-8.016-6-9l-1-2z" fill="#424242"/><path d="m23.395 19c0-.551.448-1 1-1s1 .449 1 1-.448 1-1 1-1-.449-1-1m-8 0c0 .551.448 1 1 1s1-.449 1-1-.448-1-1-1-1 .449-1 1" fill="#784719"/><path d="m25.395 31s-1 4-5 4-5-4-5-4-11 1.986-11 13h32c0-10.975-11-13-11-13" fill="#fff"/><path d="m20.395 37c5 0 6.745-3.93 6.95-5.428-1.156-.424-1.95-.572-1.95-.572s-1 4-5 4-5-4-5-4-.795.145-1.952.566c.204 1.495 1.952 5.434 6.952 5.434z"/></g><g fill="#43a047" transform="matrix(-1.5695363166 0 0 -1.5695363166 99.70655077253 72.47730812143)"><path d="m39.566 19.785h1.5v6.75h-1.5z"/><path d="m36.941 22.41h6.75v1.5h-6.75z" fill-rule="evenodd"/></g><g transform="matrix(-1.57333794953 0 0 -1.57333794953 68.30345935635 51.78027986953)"><path d="m19.782 15.986-.214 1.494c.35.034.709.051 1.068.051v-1.5c-.29 0-.574-.018-.854-.045z" fill="#43a047"/><path d="m18.432 4.385-.506-1.419c-.528.185-1.034.433-1.51.734l.814 1.27c.375-.238.777-.434 1.202-.585z" fill="#dcedc8"/><path d="m16.181 5.805-1.07-1.055c-.393.395-.746.836-1.043 1.31l1.283.799c.238-.381.514-.736.83-1.054z" fill="#c5e1a5"/><path d="m14.772 8.062-1.428-.493c-.183.524-.309 1.073-.368 1.629l1.497.165c.05-.451.154-.886.299-1.301z" fill="#aed581"/><path d="m14.474 10.702-1.498.169c.058.554.185 1.103.371 1.632l1.427-.498c-.146-.416-.25-.851-.3-1.303z" fill="#9ccc65"/><path d="m15.355 13.211-1.283.798c.297.475.65.913 1.046 1.311l1.066-1.06c-.315-.316-.59-.67-.829-1.049z" fill="#8bc34a"/><path d="m17.233 15.094-.809 1.273c.472.299.979.544 1.509.734l.507-1.421c-.427-.151-.831-.348-1.207-.586z" fill="#8bc34a"/><g fill="#43a047"><path d="m20.683 4.031v-1.5c-.371 0-.746.017-1.115.051l.222 1.494c.292-.027.59-.045.893-.045z"/><path d="m20.452 2.531v1.5h.001c3.324 0 6.019 2.686 6.019 6s-2.695 6-6.019 6c-.001 0-.001 0-.001 0v1.5c4.148 0 7.524-3.365 7.524-7.5 0-4.136-3.376-7.5-7.524-7.5z"/></g></g></svg>