<svg enable-background="new 0 0 48 48" viewBox="0 0 48 48" xmlns="http://www.w3.org/2000/svg"><path d="m11 17h4v26h-4zm6 26h2v-26h-2zm20 0h2v-26h-2zm-32 0h4v-26h-4zm26-26v26h4v-26zm-10 26h8v-26h-8z" fill="#fff"/><path d="m29 17v9.2 1.5 1.7c-3.6-1.2-6.5-3.9-8-7.4v-5h1.1.9zm8 0v2.2 2.3 7.9c.7-.2 1.4-.5 2-.8v-11.6zm-6 0v9.8 1.2 1.8c.7.1 1.3.2 2 .2s1.3-.1 2-.2v-1.8-1.2-9.8z" fill="#d8d8d8"/><path d="m42.3 13.4-3.4 2.7c0 .3.1.6.1.9 0 3.3-2.7 6-6 6s-6-2.7-6-6 2.7-6 6-6v3.6l7-5.6-7-5.6v3.6c-5.5 0-10 4.5-10 10s4.5 10 10 10 10-4.5 10-10c0-1.3-.3-2.5-.7-3.6z" fill="#43a047"/></svg>