<svg enable-background="new 0 0 48 48" viewBox="0 0 48 48" xmlns="http://www.w3.org/2000/svg"><g fill="#fff"><path d="m27 13c0 1.7-1.3 3-3 3s-3-1.3-3-3l-2-2c0-1.7 3.3-4 5-4s5 2.3 5 4z"/><path d="m17 15 5 2h4l5-2c0-3-2-4-2-4h-10s-2 1-2 4z"/><path d="m41 29c-.1 0-.2 0-.3-.1l-6.6-2.2-1.1-6.5c-.1-.5.3-1.1.8-1.2s1.1.3 1.2.8l.9 5.4 5.4 1.8c.5.2.8.7.6 1.3-.1.4-.5.7-.9.7z"/><path d="m41 42c-.2 0-.3 0-.4-.1l-4.4-2.2-2.1-6.4c-.2-.5.1-1.1.6-1.3s1.1.1 1.3.6l1.9 5.6 3.6 1.8c.5.2.7.8.4 1.3-.2.5-.5.7-.9.7z"/><path d="m7 29c-.4 0-.8-.3-.9-.7-.2-.5.1-1.1.6-1.3l5.4-1.8.9-5.4c.1-.5.6-.9 1.2-.8.5.1.9.6.8 1.2l-1.1 6.6-6.6 2.2c-.1 0-.2 0-.3 0z"/><path d="m7 42c-.4 0-.7-.2-.9-.6-.2-.5 0-1.1.4-1.3l3.6-1.8 1.9-5.6c.2-.5.7-.8 1.3-.6.5.2.8.7.6 1.3l-2.1 6.4-4.4 2.2c-.1 0-.2 0-.4 0z"/><path d="m37.6 19h-13.6c-.6 0-1-.4-1-1s.4-1 1-1h12.4l2.7-4.5c.3-.5.9-.6 1.4-.3s.6.9.3 1.4z"/><path d="m24 19h-13.6l-3.3-5.5c-.2-.5-.1-1.1.4-1.4.5-.2 1.1-.1 1.4.4l2.7 4.5h12.4c.6 0 1 .4 1 1s-.4 1-1 1z"/><path d="m23 10c-.3 0-.5-.1-.7-.3-.1-.1-1.8-1.7-5.3-1.7-.6 0-1-.4-1-1s.4-1 1-1c4.4 0 6.6 2.2 6.7 2.3.4.4.4 1 0 1.4-.2.2-.4.3-.7.3z"/><path d="m25 10c-.3 0-.5-.1-.7-.3-.4-.4-.4-1 0-1.4.1-.1 2.3-2.3 6.7-2.3.6 0 1 .4 1 1s-.4 1-1 1c-3.5 0-5.2 1.6-5.3 1.7-.2.2-.4.3-.7.3z"/><path d="m23 20h2v22h-2z"/></g><path d="m15.2 17c-2.4 2.4-4.2 5.8-4.2 10 0 8.8 7.7 15 12 15l1-23 1 23c4.3 0 12-6.2 12-15 0-4.2-1.8-7.6-4.2-10z" fill="#dddcdc"/><path d="m24 22c2.8 0 5-2.2 5-5h-10c0 2.8 2.2 5 5 5z" fill="#a2a2a2"/><path d="m32 28.5c0 1.4-1.1 2.5-2.5 2.5s-2.5-1.1-2.5-2.5 1.1-2.5 2.5-2.5 2.5 1.1 2.5 2.5z" fill="#a2a2a2"/><path d="m21 28.5c0 1.4-1.1 2.5-2.5 2.5s-2.5-1.1-2.5-2.5 1.1-2.5 2.5-2.5 2.5 1.1 2.5 2.5z" fill="#a2a2a2"/><path d="m13.3 22.4c-.5 1-.4 2.1.4 2.5.7.4 1.7-.1 2.3-1.1.5-1 .4-2.1-.4-2.5s-1.8.1-2.3 1.1z" fill="#a2a2a2"/><path d="m34.9 22.4c-.5-1-1.5-1.4-2.3-1.1s-.9 1.5-.4 2.5 1.5 1.4 2.3 1.1c.8-.4 1-1.5.4-2.5z" fill="#a2a2a2"/><path d="m29.4 37.6c.6.6 1.7.4 2.5-.4s.9-1.9.4-2.5-1.7-.4-2.5.4-1 2-.4 2.5z" fill="#a2a2a2"/><path d="m19.2 37.6c.6-.6.4-1.7-.4-2.5s-1.9-.9-2.5-.4-.4 1.7.4 2.5 1.9 1 2.5.4z" fill="#a2a2a2"/><path d="m29 11h-2v2c0 .6.4 1 1 1h2.9c-.4-2.2-1.9-3-1.9-3z" fill="#dddcdc"/><path d="m19 11h2v2c0 .6-.4 1-1 1h-2.9c.4-2.2 1.9-3 1.9-3z" fill="#dddcdc"/></svg>