<?xml version="1.0" encoding="utf-8"?>
<svg version="1.1" id="Layer_1" x="0px" y="0px" viewBox="0 0 48 48" style="enable-background:new 0 0 48 48;" xmlns="http://www.w3.org/2000/svg">
  <g/>
  <path style="fill: rgb(255, 255, 255);" d="M42.92,38.32L42,45h-4l-2-3H12l-2,3H6l-0.92-6.68c-0.19-1.53-0.03-3.08,0.48-4.53L9.24,24l0.01-0.02  l1.99-5.31c0.54-1.55,1.97-2.59,3.59-2.67h18.16c1.7,0,3.21,1.07,3.78,2.67l5.67,15.12C42.95,35.24,43.11,36.79,42.92,38.32z"/>
  <rect x="28" y="23" style="fill: rgb(162, 162, 162);" width="4" height="2"/>
  <rect x="28" y="27" style="fill: rgb(162, 162, 162);" width="4" height="2"/>
  <rect x="28" y="31" style="fill: rgb(162, 162, 162);" width="4" height="2"/>
  <rect x="22" y="23" style="fill: rgb(162, 162, 162);" width="4" height="2"/>
  <rect x="22" y="27" style="fill: rgb(162, 162, 162);" width="4" height="2"/>
  <rect x="22" y="31" style="fill: rgb(162, 162, 162);" width="4" height="2"/>
  <rect x="16" y="23" style="fill: rgb(162, 162, 162);" width="4" height="2"/>
  <rect x="16" y="27" style="fill: rgb(162, 162, 162);" width="4" height="2"/>
  <rect x="16" y="31" style="fill: rgb(162, 162, 162);" width="4" height="2"/>
  <rect x="29" y="14" style="fill: rgb(255, 255, 255);" width="4" height="3"/>
  <rect x="15" y="14" style="fill: rgb(255, 255, 255);" width="4" height="3.53"/>
  <path style="fill: rgb(162, 162, 162);" d="M14.83,16c-1.62,0.08-3.05,1.12-3.59,2.67l-1.99,5.31l2.53-1.33c1.38-0.72,2.34-2.07,2.59-3.6  L14.86,16H14.83z"/>
  <path style="fill: rgb(255, 255, 255);" d="M46.943,11.577l-1.415-5.463c-0.263-1.068-1.108-1.905-2.19-2.171C40.631,3.278,37.902,3.01,35.255,3  c-0.044,0-0.088,0-0.131,0c-5.034-0.004-9.761,0.917-13.448,1.799C16.02,6.152,8.147,8.529,2.022,13.826  c-0.838,0.725-1.201,1.851-0.938,2.919L2.5,22.5c0.224,0.912,1.04,1.487,1.906,1.5c0.164,0.002,0.331-0.015,0.495-0.055  c0.182-0.044,0.362-0.115,0.535-0.214l5.413-2.849c0.826-0.435,1.398-1.228,1.542-2.141l0.973-6.138  c3.344-1.443,6.707-2.376,9.482-3.039c2.776-0.664,6.198-1.354,9.841-1.583l3.701,4.814c0.553,0.746,1.429,1.193,2.365,1.206  l6.151-0.003c0.2,0.011,0.393-0.008,0.575-0.051c0.881-0.209,1.519-0.998,1.52-1.899C47,11.893,46.982,11.735,46.943,11.577z"/>
  <path style="fill: rgba(162, 162, 162, 0.44);" d="M43,19c-2.387,0-3.895-1.48-3.957-1.543l1.408-1.42C40.461,16.047,41.465,17,43,17  s2.539-0.953,2.549-0.963l1.408,1.42C46.895,17.52,45.387,19,43,19z"/>
  <path style="fill: rgba(162, 162, 162, 0.43);" d="M4.525,8.881l-1.554-1.26C3.092,7.474,5.955,4,11,4v2C6.937,6,4.622,8.764,4.525,8.881z"/>
</svg>