<svg enable-background="new 0 0 48 48" viewBox="0 0 48 48" xmlns="http://www.w3.org/2000/svg"><path d="m9 13.025h30v13h-30z" fill="#fff"/><ellipse cx="24" cy="26.025" fill="#fff" rx="15" ry="6"/><path d="m23.1 3.225-22.5 9.9c-.8.4-.8 1.5 0 1.9l22.5 9.9c.6.2 1.2.2 1.8 0l22.5-9.9c.8-.4.8-1.5 0-1.9l-22.5-9.9c-.6-.3-1.2-.3-1.8 0z" fill="#a2a2a2"/><g fill="#fff"><path d="m43.2 15.425-20-3.4c-.5-.1-1.1.3-1.2.8s.3 1.1.8 1.2l19.2 3.2v14.8c0 .6.4 1 1 1s1-.4 1-1v-15.6c0-.5-.4-.9-.8-1z"/><circle cx="43" cy="32.025" r="2"/><path d="m46 35.025c0 1.7-3 6-3 6s-3-4.3-3-6 1.3-3 3-3 3 1.3 3 3z"/></g></svg>