<svg enable-background="new 0 0 48 48" height="48" viewBox="0 0 48 48" width="48" xmlns="http://www.w3.org/2000/svg"><path d="m37.934 13c0 .553-.446 1-.998 1h-31.938c-.552 0-.998-.447-.998-1v-7c0-.553.446-1 .998-1h31.938c.552 0 .998.447.998 1z" fill="#a2a2a2"/><path d="m4 10h33.934v29h-33.934z" fill="#fefefe"/><path d="m23.548 37s4.469-6 9.98-6 9.98 6 9.98 6-4.469 6-9.98 6-9.98-6-9.98-6z" fill="#fff"/><g fill="#a2a2a2"><path d="m33.528 31c5.512 0 9.98 6 9.98 6s-4.469 6-9.98 6-9.98-6-9.98-6 4.469-6 9.98-6m0-2c-6.438 0-11.373 6.526-11.58 6.804l-.89 1.196.891 1.196c.206.278 5.141 6.804 11.579 6.804s11.374-6.526 11.58-6.804l.892-1.196-.892-1.196c-.206-.278-5.141-6.804-11.58-6.804z"/><path d="m23.823 31h-8.845v2h6.734c.557-.597 1.268-1.293 2.111-2z"/><path d="m30.947 27.285v-.285h-15.968v2h11.681c1.283-.746 2.719-1.373 4.287-1.715z"/><path d="m14.979 23h15.969v2h-15.969z"/><path d="m14.979 19h15.969v2h-15.969z"/><path d="m14.979 15h15.969v2h-15.969z"/><path d="m10.986 15h1.996v2h-1.996z"/><path d="m10.986 19h1.996v2h-1.996z"/><path d="m10.986 31h1.996v2h-1.996z"/><path d="m10.986 23h1.996v2h-1.996z"/><path d="m10.986 27h1.996v2h-1.996z"/><ellipse cx="33.528" cy="37" rx="4.99" ry="5"/></g><circle cx="33.528" cy="37" fill="#565656" r="1.996"/></svg>