<svg viewBox="0 0 48 48" xmlns="http://www.w3.org/2000/svg"><path d="M.537 34.17V.692h35.506v32.97c0 .304-.203.506-.507.506H.537z" fill="#FFF"/><path d="M35.536 1.2v32.462H1.044V1.2h34.492M36.55.185H.03v34.492h35.506c.608 0 1.014-.406 1.014-1.015V.185z" fill="#A2A2A2"/><path fill="#DDDCDC" d="M11.189 25.547h18.26v1.014h-18.26z"/><path d="M24.469 34.677H36.55v-13c-.203 0-.279-.444-.583-.444-.102 0-.395-.25-.496-.25l.065 12.68-11.362.04.295.974z" fill="#C8D1DB"/><path fill="#DDDCDC" d="M23.834 27.41l5.677-.01.144-2.49-4.47-.027z"/><path fill="#A2A2A2" d="M.03.185h36.52v6.087H.03z"/><path fill="#DDDCDC" d="M11.189 13.373h18.26v1.015h-18.26zm-4.058 0h1.014v1.015H7.131zm4.058 4.058h18.26v1.014h-18.26zm-4.058 0h1.014v1.014H7.131zm4.058 4.09h17.086v.95H11.19zM7.13 21.49h1.014v1.014H7.131zm0 4.058h1.014v1.014H7.131z"/><g transform="translate(25.367 22.505) scale(.35383)"><path d="M4 20.5c-.827 0-1.5-.673-1.5-1.5v-1c0-.827.673-1.5 1.5-1.5h32c.827 0 1.5.673 1.5 1.5v1c0 .827-.673 1.5-1.5 1.5H4z" fill="#FD0"/><path d="M36 17c.551 0 1 .449 1 1v1c0 .551-.449 1-1 1H4c-.551 0-1-.449-1-1v-1c0-.551.449-1 1-1h32m0-1H4a2 2 0 0 0-2 2v1a2 2 0 0 0 2 2h32a2 2 0 0 0 2-2v-1a2 2 0 0 0-2-2z" fill="#FD0"/><path d="M31.5 34.5c-.552 0-1-.449-1-1v-6h5v6c0 .551-.448 1-1 1h-3z"/><path d="M35 28v5.5a.5.5 0 0 1-.5.5h-3a.5.5 0 0 1-.5-.5V28h4m1-1h-6v6.5a1.5 1.5 0 0 0 1.5 1.5h3a1.5 1.5 0 0 0 1.5-1.5V27zM5.5 34.5c-.552 0-1-.449-1-1v-6h5v6c0 .551-.448 1-1 1h-3z"/><path d="M9 28v5.5a.5.5 0 0 1-.5.5h-3a.5.5 0 0 1-.5-.5V28h4m1-1H4v6.5A1.5 1.5 0 0 0 5.5 35h3a1.5 1.5 0 0 0 1.5-1.5V27z"/><path d="M7 31.5A2.503 2.503 0 0 1 4.5 29v-9.083l1.036-2.626 2.357-8.928A2.505 2.505 0 0 1 10.312 6.5h19.377c1.134 0 2.129.766 2.418 1.863l2.339 8.872 1.055 2.682V29c0 1.378-1.121 2.5-2.5 2.5H7z" fill="#FD0"/><path d="M29.688 7c.907 0 1.703.613 1.934 1.49l2.339 8.872.015.057.022.055L35 20.012V29c0 1.103-.897 2-2 2H7c-1.103 0-2-.897-2-2v-8.988l1.002-2.537.022-.055.015-.057L8.378 8.49A2.001 2.001 0 0 1 10.312 7h19.376m0-1H10.312a3 3 0 0 0-2.901 2.235l-2.339 8.872L4 19.821V29a3 3 0 0 0 3 3h26a3 3 0 0 0 3-3v-9.179l-1.071-2.714-2.339-8.872A3.001 3.001 0 0 0 29.688 6z" fill="#FD0"/><circle cx="31" cy="23" r="2" fill="#FFF"/><circle cx="9" cy="23" r="2" fill="#FFF"/><g fill="#FD0"><path d="M12.6 31.5l1.049-5.769a1.5 1.5 0 0 1 1.476-1.231h9.752a1.5 1.5 0 0 1 1.476 1.231L27.4 31.5H12.6z"/><path d="M24.876 25a1 1 0 0 1 .984.821L26.802 31H13.198l.942-5.179a.999.999 0 0 1 .984-.821h9.752m0-1h-9.753a2 2 0 0 0-1.968 1.642L12 32h16l-1.156-6.358A2 2 0 0 0 24.876 24z"/></g><path fill="#FD0" d="M4 17h32v3H4z"/><path d="M5.749 16.5l2.146-8.137A2.5 2.5 0 0 1 10.312 6.5h19.377a2.5 2.5 0 0 1 2.417 1.863l2.146 8.137H5.749z" fill="#DFF0FE"/><path d="M29.688 7c.907 0 1.703.613 1.934 1.49l1.98 7.51H6.398l1.98-7.51A2.001 2.001 0 0 1 10.312 7h19.376m0-1H10.312a3 3 0 0 0-2.901 2.235L5.1 17h29.8l-2.311-8.765A3 3 0 0 0 29.688 6z" fill="#FD0"/></g><path fill="#DDDCDC" d="M38.358 37.616l1.844-1.843 7.823 7.822-1.844 1.844z"/><path d="M40.644 29.754a8.304 8.304 0 0 1-8.304 8.304c-4.588 0-8.305-3.717-8.305-8.304s3.717-8.304 8.305-8.304a8.304 8.304 0 0 1 8.304 8.304zm-8.304-10.15c-5.606 0-10.15 4.546-10.15 10.15s4.544 10.15 10.15 10.15 10.149-4.546 10.149-10.15-4.544-10.15-10.15-10.15z" fill="#FD0"/><path fill="#A2A2A2" d="M40.517 39.774l1.843-1.846 5.67 5.665-1.844 1.845z"/></svg>