<svg height="512" viewBox="0 0 48 48" width="512" xmlns="http://www.w3.org/2000/svg"><path d="m-.092 23.752c0-13.252 10.747-24 24-24 13.252 0 24 10.748 24 24 0 13.253-10.748 24-24 24-13.253 0-24-10.747-24-24z" fill="#8c00ff"/><path d="m25.117 7.191v-3.191s.029-.261-.165-.338c-.193-.078-.406.077-.406.077l-9.5 5.591s-.212.126-.212.31c0 .222.213.329.213.329l9.538 5.62s.183.116.367 0 .174-.29.174-.29v-2.98c5.785.6 10.293 5.495 10.293 11.434 0 6.346-5.146 11.492-11.492 11.492s-11.512-5.146-11.512-11.492c0-1.809.416-3.511 1.161-5.03 0 0 .958-2.147-1.025-3.124-1.993-.977-3.173.096-3.415.57a16.548 16.548 0 0 0 -1.838 7.594c0 9.17 7.44 16.61 16.61 16.61s16.609-7.44 16.609-16.61c0-8.774-6.79-15.952-15.4-16.57z" fill="#f7f7f7"/></svg>