<svg viewBox="0 0 48 48" xmlns="http://www.w3.org/2000/svg"><path d="M24.116 38.08c-11.188 0-20.744-12.219-22.774-15 2.03-2.783 11.586-15 22.774-15s20.744 12.217 22.774 15c-2.03 2.781-11.586 15-22.774 15z" fill="#fff"/><path d="M24.116 9.08c10.068 0 18.876 10.503 21.528 14-2.652 3.495-11.458 14-21.528 14S5.24 26.575 2.588 23.08c2.652-3.497 11.46-14 21.528-14m0-2c-13.254 0-24 16-24 16s10.746 16 24 16 24-16 24-16-10.746-16-24-16z" fill="#a2a2a2"/><path d="M24.116 34.08c-6.066 0-11-4.935-11-11s4.934-11 11-11 11 4.933 11 11-4.934 11-11 11z" fill="rgba(244, 67, 54, 0.54)"/><path d="M24.116 13.08c5.514 0 10 4.485 10 10s-4.486 10-10 10-10-4.487-10-10 4.486-10 10-10m0-2c-6.628 0-12 5.371-12 12s5.372 12 12 12 12-5.373 12-12-5.372-12-12-12z" fill="#F44336"/><circle cx="24.116" cy="23.079" fill="#36404d" r="6"/><circle cx="28.116" cy="15.079" fill="#fff" r="4"/></svg>